<svg xmlns="http://www.w3.org/2000/svg" viewBox="0 0 64 64" role="img" aria-labelledby="title desc">
  <title id="title">Pierre Derval favicon</title>
  <desc id="desc">Minimal monogram favicon with the letters P and D.</desc>
  <rect width="64" height="64" rx="18" fill="#14181b" />
  <path d="M19 18h15.7c7.2 0 11.8 4.3 11.8 11.2 0 7-4.8 11.3-12.4 11.3H27v9.5h-8V18Zm8 15.7h6.6c3.1 0 4.9-1.6 4.9-4.4s-1.8-4.3-4.8-4.3H27v8.7Z" fill="#f4f1eb" />
  <path d="M31.5 46.5h4.3c6.8 0 11.1-4.1 11.1-10.6 0-6.3-4.2-10.4-11-10.4h-4.4v6.1h3.8c3.2 0 5.3 1.8 5.3 4.5 0 2.9-2 4.7-5.3 4.7h-3.8v5.7Z" fill="#4e7f88" opacity=".92" />
</svg>

