<svg id="Layer_1" data-name="Layer 1" xmlns="http://www.w3.org/2000/svg" viewBox="0 0 788.44 236.18"><defs><style>.cls-1{fill:#fff;}</style></defs><title>Adform_logo_White_RGB</title><path class="cls-1" d="M458.2,123.07c-7.78,14-9.89,25.94-4.32,30.88a57.82,57.82,0,0,1,19.63,43.31c0,32.19-26.56,58.28-59.34,58.28h0c-26.84,0-50.33-17.73-57.28-43.19-.64-2.35-1.16-4.7-1.59-7a62.61,62.61,0,0,1-.43-8c0-32.18,26.57-58.28,59.34-58.28a61.53,61.53,0,0,1,6.2.32c7.47.77,15.12-8.79,20.48-23.81a89,89,0,0,0-26.68-4.09q-4.44,0-8.77.43h0c-39.51,3.87-71.26,33.56-77.53,71.64.07.41.16.81.23,1.22-.07-.4-.16-.8-.23-1.21a84.81,84.81,0,0,0-1.13,13.79c0,47.42,39.14,85.86,87.43,85.86s87.43-38.44,87.43-85.86A85.58,85.58,0,0,0,458.2,123.07Z" transform="translate(-6.56 -46.94)"/><path class="cls-1" d="M224.57,233.13c0,12.37-12.94,22.4-28.89,22.4s-28.89-10-28.89-22.4V161.38c0-12.37,12.94-22.4,28.89-22.4s28.89,10,28.89,22.4Zm0-177.48V118.3a62.74,62.74,0,0,0-28.9-6.91c-31.44,0-56.93,22.38-56.93,50v71.74c0,27.61,25.49,50,56.93,50s56.93-22.38,56.93-50V55.65Z" transform="translate(-6.56 -46.94)"/><path class="cls-1" d="M92.38,233.13c0,12.37-12.94,22.41-28.89,22.41s-28.89-10-28.89-22.41c0-10.59,9.83-20.23,22.75-23.64l35-9.23ZM63.54,111.39c-20.06,0-37.69,9.11-47.83,22.87l21.53,17.13,3-3.23C45.48,142.59,54,139,63.54,139c16,0,28.89,10,28.89,22.41l-.06,10.28L50.22,182.75C22.93,189.94,6.56,210,6.56,233.13c0,27.61,25.49,50,56.93,50s56.93-22.38,56.93-50l.06-71.74c0-27.61-25.49-50-56.93-50" transform="translate(-6.56 -46.94)"/><path class="cls-1" d="M344.41,78.09a27.36,27.36,0,0,0-13.57-3.56,26.88,26.88,0,0,0-27.12,26.64V115h29.52l-12.49,27.53h-17V274.42H275.63V101.17c0-29.95,24.73-54.23,55.22-54.23a55.73,55.73,0,0,1,27.61,7.26L347,79.54Z" transform="translate(-6.56 -46.94)"/><path class="cls-1" d="M698.62,129.48a55.52,55.52,0,0,1,41.17-18.09c30.49,0,55.21,24.29,55.21,54.23v108.8H766.91V165.62a27.13,27.13,0,0,0-54.25,0v108.8H684.58V165.62a27.13,27.13,0,0,0-54.24,0v108.8H602.24V165.62c0-29.94,24.73-54.23,55.21-54.23a55.52,55.52,0,0,1,41.17,18.09" transform="translate(-6.56 -46.94)"/><path class="cls-1" d="M588.68,142.54A27.36,27.36,0,0,0,575.12,139,26.88,26.88,0,0,0,548,165.62v108.8H519.9V165.62c0-29.95,24.73-54.23,55.22-54.23a55.73,55.73,0,0,1,27.61,7.26Z" transform="translate(-6.56 -46.94)"/></svg>