<svg xmlns="http://www.w3.org/2000/svg" viewBox="0 0 413.14 128.81" role="img" aria-labelledby="title">
  <title id="title">Amilia logo</title>
  <defs>
    <style>
      .cls-1 {
        fill: #186ddc;
      }
    </style>
  </defs>
  <g id="Layer_2" data-name="Layer 2">
    <g id="Layer_1-2" data-name="Layer 1">
      <path
        id="_1.Amilia-Logo--blue"
        data-name="1.Amilia-Logo--blue"
        class="cls-1"
        d="M28.76,128.81c13.29,0,23.31-6,26.88-14.64l1.53,12.43H75.38v-51C75.38,53.26,62.45,40,38.8,40,17,40,2,52.07,2.21,70.1h17.7c-.17-8.67,6.46-13.95,17.86-13.95,10.21,0,17.36,4.43,17.36,16V74l-24,1.87C12.25,77.42,0,86.27,0,102.6,0,118.26,10.72,128.81,28.76,128.81Zm6.8-15.66c-9.36,0-14.46-4.08-14.46-11.4,0-6.8,4.42-10.89,16.67-12.08l17.55-1.53v4.42a18.79,18.79,0,0,1-16.86,20.53A17.54,17.54,0,0,1,35.56,113.15Zm74.53,13.45V78.27c0-13.61,8-20.08,17.87-20.08s16.33,6.3,16.33,18.21v50.2h20.25V78.44c0-13.78,7.83-20.25,17.7-20.25,10,0,16.48,6.3,16.48,18.21v50.2H218.8v-55c0-19.4-10.72-31.65-31.14-31.65a27.6,27.6,0,0,0-26.88,16A28.19,28.19,0,0,0,133,40a28,28,0,0,0-23.65,12.08l-1-9.53H89.33V126.6ZM243.83,25.35A12.37,12.37,0,0,0,256.23,13v-.07A12.35,12.35,0,0,0,243.81.7a12.1,12.1,0,0,0-12.23,12v.28a12.14,12.14,0,0,0,11.85,12.42ZM233.45,126.6h20.74V42.54H233.45Zm57.18,0V0H269.89V126.6ZM316.85,25.35A12.37,12.37,0,0,0,329.27,13v-.09A12.35,12.35,0,0,0,316.85.7a12.1,12.1,0,0,0-12.23,12v.28a12.14,12.14,0,0,0,11.84,12.42ZM306.45,126.6h20.74V42.54H306.45Zm60.09,2.21c13.29,0,23.31-6,26.88-14.64l1.51,12.43h18.21v-51c0-22.29-12.93-35.56-36.59-35.56C354.75,40,339.8,52.07,340,70.1h17.7c-.17-8.67,6.46-13.95,17.86-13.95,10.21,0,17.36,4.43,17.36,16V74l-24,1.87C350,77.42,337.76,86.27,337.76,102.6c0,15.66,10.72,26.21,28.76,26.21Zm6.8-15.66c-9.36,0-14.46-4.08-14.46-11.4,0-6.8,4.42-10.89,16.68-12.08l17.54-1.53v4.42a18.79,18.79,0,0,1-16.86,20.54,19,19,0,0,1-2.92.05Z"
      />
    </g>
  </g>
</svg>
